<svg xmlns="http://www.w3.org/2000/svg" viewBox="800 1100 1395 1535" fill="none">
  <defs>
    <linearGradient id="pyBlue" gradientUnits="userSpaceOnUse" gradientTransform="matrix(3.92,0,0,3.86,704.6,1789.6)" x1="26.6" y1="20.6" x2="135.7" y2="114.4">
      <stop offset="0" stop-color="#5a9fd4"/><stop offset="1" stop-color="#306998"/>
    </linearGradient>
    <linearGradient id="pyYellow" gradientUnits="userSpaceOnUse" gradientTransform="matrix(3.92,0,0,3.86,704.6,1789.6)" x1="151" y1="192.4" x2="112" y2="137.3">
      <stop offset="0" stop-color="#ffd43b"/><stop offset="1" stop-color="#ffe873"/>
    </linearGradient>
  </defs>
  <path d="m 2100,1127.6 -380,275 c 118.4,0 184.4,59.8 220,135 z" fill="#e9a033"/>
  <path d="m 1680,1485.1 c 140,0 243.6,112.7 243.6,252.7 0,140 -103.6,237.3 -243.6,237.3 l 245,275 h -205 l -337,-410 h 297 c 65,0 99.5,-44.9 99.5,-104.9 0,-60 -34.5,-105.1 -99.5,-105.1 l -470,0 -120,-145 z" fill="#fff"/>
  <path d="m 2004,1511.1 c 7.3,4.1 14.6,8.1 21.8,12.2 19.3,10.8 39,37.2 39.2,59.2 v 560 c 0.2,22.1 -14.5,49.7 -33.6,60.8 -163.8,95.2 -327.6,190.4 -491.4,285.7 -19.1,11.1 -50.2,11.4 -69.5,0.6 -90,-50.4 -180,-100.7 -270,-151.1 -35.7,28.9 -71.5,57.8 -107.2,86.6 l 343.2,192.2 c 43.3,24.3 96.5,23.8 139.4,-1.1 l 549.3,-319.4 c 42.9,-25 70.2,-70 69.8,-119.2 v -630 c -0.4,-49.2 -33.6,-95 -76.9,-119.2 l -67.1,-37.6 c -15.7,40.1 -31.3,80.2 -47,120.3 z" fill="#fff"/>
  <path d="M 1825.5,1264.5 1563.6,1117.9 c -21.3,-11.9 -45.4,-18.1 -69.8,-17.9 -24.5,0.2 -48.5,6.8 -69.5,19 l -549.3,319.4 c -42.9,25 -75.3,70 -74.9,119.2 v 630 c 0.4,49.2 38.7,95 82.1,119.2 l 80.5,45.1 c 25.1,-34.8 50.2,-69.7 75.3,-104.5 -21.2,-11.9 -42.3,-23.7 -63.5,-35.6 -19.3,-10.8 -39.2,-37.2 -39.3,-59.2 v -560 c -0.2,-22.1 14.7,-49.7 33.8,-60.8 163.8,-95.2 327.6,-190.4 491.4,-285.7 9.5,-5.5 22.1,-8.4 34.7,-8.5 12.6,-0.1 25.2,2.5 34.8,7.9 60.5,33.9 121,67.8 181.6,101.6 38.1,-27.6 76.2,-55.1 114.3,-82.7 z" fill="#fff"/>
  <path d="m 1192,1869.2 c -32,0.1 -62.5,2.8 -89.3,7.4 -79.1,13.6 -93.5,42.2 -93.5,94.8 v 69.5 h 186.9 v 23.2 h -186.9 -70.1 c -54.3,0 -101.9,31.9 -116.8,92.5 -17.2,69.5 -17.9,112.8 0,185.3 13.3,54 45,92.5 99.3,92.5 h 64.3 v -83.3 c 0,-60.2 53.4,-113.3 116.8,-113.3 h 186.7 c 52,0 93.5,-41.7 93.5,-92.7 v -173.7 c 0,-49.4 -42.7,-86.5 -93.5,-94.8 -32.1,-5.2 -65.4,-7.6 -97.4,-7.4 z m -101.1,55.9 c 19.3,0 35.1,15.6 35.1,34.9 0,19.2 -15.8,34.6 -35.1,34.6 -19.4,0 -35.1,-15.5 -35.1,-34.6 0,-19.2 15.7,-34.9 35.1,-34.9 z" fill="url(#pyBlue)"/>
  <path d="m 1406.1,2064.1 v 81 c 0,62.8 -54.6,115.6 -116.8,115.6 h -186.7 c -51.1,0 -93.5,42.7 -93.5,92.7 v 173.7 c 0,49.4 44,78.5 93.5,92.7 59.2,17 115.9,20 186.7,0 47.1,-13.3 93.5,-40 93.5,-92.7 v -69.5 h -186.7 v -23.2 h 186.7 93.5 c 54.3,0 74.6,-37 93.5,-92.5 19.5,-57.1 18.7,-112.1 0,-185.3 -13.4,-52.8 -39.1,-92.5 -93.5,-92.5 z m -105,439.8 c 19.4,0 35.1,15.5 35.1,34.6 0,19.2 -15.7,34.9 -35.1,34.9 -19.3,0 -35.1,-15.6 -35.1,-34.9 0,-19.2 15.8,-34.6 35.1,-34.6 z" fill="url(#pyYellow)"/>
</svg>
